<svg xmlns="http://www.w3.org/2000/svg" viewBox="0 0 252.9 252.9"><defs><style>.cls-1{fill:#99a1af;}</style></defs><g id="Layer_2" data-name="Layer 2"><g id="Layer_1-2" data-name="Layer 1"><path class="cls-1" d="M126.45,0A126.45,126.45,0,1,0,252.9,126.45,126.45,126.45,0,0,0,126.45,0Zm0,61.84A45.36,45.36,0,1,1,81.1,107.19,45.4,45.4,0,0,1,126.45,61.84Zm0,173.76a104.53,104.53,0,0,1-78.56-35.47,90.66,90.66,0,0,1,39.48-37.49,20.68,20.68,0,0,1,18.08.12,48.7,48.7,0,0,0,42,0,20.68,20.68,0,0,1,18.08-.12A90.61,90.61,0,0,1,205,200.13,104.53,104.53,0,0,1,126.45,235.6Z"/></g></g></svg>